<svg xmlns="http://www.w3.org/2000/svg" viewBox="0 0 120 120">
  <circle cx="60" cy="60" r="56.7" fill="#fff" stroke="#00454d" stroke-width="6.6"/>
  <path fill="#00454d" d="M86.08 36.76c-.8-3.65-3.28-5.1-7.04-6.55-3.66-1.45-12.5-3.15-19.03-3.2-6.54.05-15.37 1.76-19.06 3.2-3.73 1.44-6.24 2.9-7 6.54l-2.8 20.15v27.77h4.84V89c-.02 5.33 8.3 5.33 8.32.02v-4.35h31.42V89c-.02 5.33 8.3 5.33 8.3.02v-4.35h4.85V56.9l-2.8-20.14zM48.12 32.1H71.9c2.32 0 2.32 3.27 0 3.28H48.13c-2.35 0-2.35-3.24 0-3.24v-.04zm-8 43.87c-2.2 0-4-1.67-4-3.74 0-2.05 1.78-3.72 3.94-3.72 2.18 0 4 1.68 4 3.73-.03 2.08-1.82 3.73-4.03 3.74h.08zM59.7 59h-21.2c-2.1.02-2.5-1.38-2.32-2.76l2.2-14.63c.3-1.76.94-2.92 3.44-2.94H78.2c2.53 0 3.14 1.18 3.45 2.94l2.24 14.63c.2 1.4-.25 2.77-2.3 2.77H59.73zm20.16 16.97c-2.15 0-4-1.67-4-3.74 0-2.05 1.84-3.72 4-3.72 2.23 0 4 1.68 4.08 3.73 0 2.08-1.78 3.73-4 3.74h-.08z"/>
</svg>
